<svg xmlns="http://www.w3.org/2000/svg" xmlns:xlink="http://www.w3.org/1999/xlink" viewBox="0 0 3199.18 1998.75"><defs><style>.cls-1{isolation:isolate;}.cls-2{fill:url(#linear-gradient);}.cls-3{fill:#5ddaf4;}.cls-4{fill:url(#linear-gradient-2);}.cls-5{fill:url(#linear-gradient-3);}.cls-26,.cls-27,.cls-6{mix-blend-mode:screen;}.cls-6{fill:url(#radial-gradient);}.cls-7{fill:url(#linear-gradient-4);}.cls-8{fill:#f67;}.cls-9{fill:url(#linear-gradient-5);}.cls-10{fill:url(#linear-gradient-6);}.cls-11{fill:url(#linear-gradient-7);}.cls-12{fill:url(#linear-gradient-8);}.cls-13{fill:url(#linear-gradient-9);}.cls-14{fill:#2657f4;}.cls-15{fill:#0d035c;}.cls-16{fill:#0b074e;}.cls-17{fill:url(#linear-gradient-10);}.cls-18{fill:url(#linear-gradient-11);}.cls-19{fill:url(#linear-gradient-12);}.cls-20{fill:url(#linear-gradient-13);}.cls-21{fill:#623fe9;}.cls-22{fill:url(#linear-gradient-14);}.cls-23{fill:url(#linear-gradient-15);}.cls-24{fill:url(#linear-gradient-16);}.cls-25{fill:url(#linear-gradient-17);}.cls-26{fill:url(#radial-gradient-2);}.cls-27{fill:url(#radial-gradient-3);}.cls-28{fill:#150d9c;}.cls-29{fill:url(#linear-gradient-18);}.cls-30{fill:url(#linear-gradient-19);}.cls-31{fill:url(#linear-gradient-20);}.cls-32{fill:url(#linear-gradient-21);}.cls-33{fill:#a5cbef;}.cls-34{fill:url(#linear-gradient-22);}.cls-35{fill:url(#linear-gradient-23);}.cls-36{fill:#b7d5f2;}.cls-37{fill:url(#linear-gradient-24);}.cls-38{fill:url(#linear-gradient-25);}.cls-39{fill:url(#linear-gradient-26);}.cls-40{fill:#231f20;}.cls-41{fill:url(#linear-gradient-27);}.cls-42{fill:#292929;}.cls-43{fill:#ef0405;}.cls-44{fill:#f9696a;}.cls-45{fill:url(#linear-gradient-28);}.cls-46{fill:url(#linear-gradient-29);}.cls-47{fill:#121010;}.cls-48{fill:url(#linear-gradient-30);}.cls-49{fill:#19375f;}.cls-50{fill:#326ebd;}.cls-51{opacity:0.2;}.cls-52{fill:#fff;}.cls-53{fill:#c9e0f5;}</style><linearGradient id="linear-gradient" x1="-210.02" y1="2212.41" x2="3135.67" y2="-30.31" gradientUnits="userSpaceOnUse"><stop offset="0" stop-color="#ba539a"/><stop offset="0.02" stop-color="#b04e96"/><stop offset="0.14" stop-color="#853a87"/><stop offset="0.26" stop-color="#60297a"/><stop offset="0.38" stop-color="#421b6f"/><stop offset="0.51" stop-color="#2a1167"/><stop offset="0.65" stop-color="#1a0961"/><stop offset="0.8" stop-color="#10045d"/><stop offset="1" stop-color="#0d035c"/></linearGradient><linearGradient id="linear-gradient-2" x1="1441.74" y1="1291.47" x2="1505.31" y2="1227.11" gradientTransform="translate(641.32 -488.38) rotate(24.01)" gradientUnits="userSpaceOnUse"><stop offset="0" stop-color="#0d035c"/><stop offset="0.17" stop-color="#250e65"/><stop offset="0.54" stop-color="#632b7b"/><stop offset="1" stop-color="#ba539a"/></linearGradient><linearGradient id="linear-gradient-3" x1="86.15" y1="1330.48" x2="128.99" y2="1287.1" gradientTransform="translate(1382.71 998.51) rotate(80.78)" xlink:href="#linear-gradient-2"/><radialGradient id="radial-gradient" cx="1980.96" cy="-457.33" r="90.02" gradientTransform="matrix(-0.71, 0.71, 0.71, 0.71, 2380.69, -834.49)" gradientUnits="userSpaceOnUse"><stop offset="0" stop-color="#2657f4"/><stop offset="0.06" stop-color="#2049ce"/><stop offset="0.15" stop-color="#19389e"/><stop offset="0.25" stop-color="#122974"/><stop offset="0.35" stop-color="#0c1c50"/><stop offset="0.45" stop-color="#081233"/><stop offset="0.56" stop-color="#040a1c"/><stop offset="0.68" stop-color="#02040c"/><stop offset="0.82" stop-color="#000103"/><stop offset="1"/></radialGradient><linearGradient id="linear-gradient-4" x1="620.69" y1="280.14" x2="706.36" y2="193.39" gradientUnits="userSpaceOnUse"><stop offset="0" stop-color="#0d035c"/><stop offset="0.13" stop-color="#250d5f"/><stop offset="0.4" stop-color="#632666"/><stop offset="0.79" stop-color="#c64f71"/><stop offset="1" stop-color="#f67"/></linearGradient><linearGradient id="linear-gradient-5" x1="1529.61" y1="2178.25" x2="1972.71" y2="1729.61" gradientUnits="userSpaceOnUse"><stop offset="0" stop-color="#0d035c"/><stop offset="0.16" stop-color="#100560"/><stop offset="0.33" stop-color="#170a6d"/><stop offset="0.5" stop-color="#241382"/><stop offset="0.68" stop-color="#3620a0"/><stop offset="0.86" stop-color="#4d30c6"/><stop offset="1" stop-color="#623fe9"/></linearGradient><linearGradient id="linear-gradient-6" x1="-111.81" y1="467.37" x2="440.01" y2="-91.35" gradientUnits="userSpaceOnUse"><stop offset="0" stop-color="#623fe9"/><stop offset="0.04" stop-color="#5a3add"/><stop offset="0.18" stop-color="#4329b5"/><stop offset="0.33" stop-color="#2f1b95"/><stop offset="0.48" stop-color="#20117c"/><stop offset="0.64" stop-color="#15096a"/><stop offset="0.81" stop-color="#0f045f"/><stop offset="1" stop-color="#0d035c"/></linearGradient><linearGradient id="linear-gradient-7" x1="43.91" y1="2051.91" x2="530.88" y2="1558.85" gradientUnits="userSpaceOnUse"><stop offset="0" stop-color="#0d035c"/><stop offset="0.1" stop-color="#12055d"/><stop offset="0.23" stop-color="#210b5e"/><stop offset="0.37" stop-color="#3a1561"/><stop offset="0.52" stop-color="#5c2365"/><stop offset="0.67" stop-color="#89366a"/><stop offset="0.84" stop-color="#bf4c70"/><stop offset="1" stop-color="#fe6677"/><stop offset="1" stop-color="#f67"/></linearGradient><linearGradient id="linear-gradient-8" x1="2084.99" y1="288.35" x2="2448.18" y2="-79.38" gradientUnits="userSpaceOnUse"><stop offset="0" stop-color="#f67"/><stop offset="0.03" stop-color="#f16075"/><stop offset="0.13" stop-color="#bc4b70"/><stop offset="0.24" stop-color="#8d376a"/><stop offset="0.36" stop-color="#662766"/><stop offset="0.47" stop-color="#461a62"/><stop offset="0.59" stop-color="#2d1060"/><stop offset="0.71" stop-color="#1b095e"/><stop offset="0.85" stop-color="#10045c"/><stop offset="1" stop-color="#0d035c"/></linearGradient><linearGradient id="linear-gradient-9" x1="2938.68" y1="694.71" x2="3050.72" y2="581.27" gradientTransform="translate(3192.22 -2402.99) rotate(81.65)" gradientUnits="userSpaceOnUse"><stop offset="0.07" stop-color="#0d035c"/><stop offset="0.19" stop-color="#130766"/><stop offset="0.4" stop-color="#22127f"/><stop offset="0.66" stop-color="#3b24a9"/><stop offset="0.97" stop-color="#5e3ce3"/><stop offset="1" stop-color="#623fe9"/></linearGradient><linearGradient id="linear-gradient-10" x1="1231.31" y1="687.57" x2="1525.56" y2="393.33" gradientUnits="userSpaceOnUse"><stop offset="0.46" stop-color="#663bba"/><stop offset="0.47" stop-color="#683cb9"/><stop offset="0.6" stop-color="#9e4ba2"/><stop offset="0.72" stop-color="#c8568f"/><stop offset="0.84" stop-color="#e65f82"/><stop offset="0.93" stop-color="#f8647a"/><stop offset="1" stop-color="#f67"/></linearGradient><linearGradient id="linear-gradient-11" x1="2115.27" y1="540.33" x2="2197.06" y2="458.54" gradientTransform="matrix(-1, 0, 0, 1, 3392.4, 0)" gradientUnits="userSpaceOnUse"><stop offset="0" stop-color="#2657f4"/><stop offset="0.21" stop-color="#505adc"/><stop offset="0.69" stop-color="#b961a0"/><stop offset="1" stop-color="#f67"/></linearGradient><linearGradient id="linear-gradient-12" x1="1778.67" y1="677.66" x2="1824.44" y2="631.89" xlink:href="#linear-gradient-11"/><linearGradient id="linear-gradient-13" x1="1857.62" y1="773.2" x2="1912.69" y2="698.25" gradientTransform="matrix(-1, 0, 0, 1, 3392.4, 0)" gradientUnits="userSpaceOnUse"><stop offset="0" stop-color="#ef9ea3"/><stop offset="0.21" stop-color="#f0a29c"/><stop offset="0.51" stop-color="#f4ac8a"/><stop offset="0.86" stop-color="#fbbd6c"/><stop offset="1" stop-color="#fec55e"/></linearGradient><linearGradient id="linear-gradient-14" x1="2241.86" y1="404.03" x2="2254.12" y2="404.03" xlink:href="#linear-gradient-13"/><linearGradient id="linear-gradient-15" x1="2091.61" y1="649.76" x2="2097.64" y2="649.76" xlink:href="#linear-gradient-13"/><linearGradient id="linear-gradient-16" x1="1885.21" y1="632.57" x2="1891.23" y2="632.57" xlink:href="#linear-gradient-13"/><linearGradient id="linear-gradient-17" x1="2156.72" y1="394.01" x2="2162.75" y2="394.01" xlink:href="#linear-gradient-13"/><radialGradient id="radial-gradient-2" cx="992.32" cy="376.7" r="90.02" gradientTransform="matrix(-0.71, 0.71, 0.71, 0.71, 2380.69, -834.49)" gradientUnits="userSpaceOnUse"><stop offset="0" stop-color="#2657f4"/><stop offset="0.07" stop-color="#214cd4"/><stop offset="0.21" stop-color="#18389c"/><stop offset="0.35" stop-color="#11276d"/><stop offset="0.49" stop-color="#0b1945"/><stop offset="0.62" stop-color="#060e27"/><stop offset="0.76" stop-color="#030611"/><stop offset="0.88" stop-color="#010204"/><stop offset="1"/></radialGradient><radialGradient id="radial-gradient-3" cx="318.76" cy="1175.95" r="90.02" xlink:href="#radial-gradient-2"/><linearGradient id="linear-gradient-18" x1="1698.35" y1="859.96" x2="1763.05" y2="859.96" xlink:href="#linear-gradient-4"/><linearGradient id="linear-gradient-19" x1="2181.45" y1="1719.25" x2="2278.05" y2="1719.25" xlink:href="#linear-gradient-4"/><linearGradient id="linear-gradient-20" x1="906.27" y1="1733.5" x2="998.52" y2="1733.5" xlink:href="#linear-gradient-4"/><linearGradient id="linear-gradient-21" x1="2410.88" y1="521.48" x2="2454.16" y2="521.48" gradientTransform="translate(-208.38 884.12) rotate(-20.71)" gradientUnits="userSpaceOnUse"><stop offset="0" stop-color="#d1e1f2"/><stop offset="0.56" stop-color="#e9f1f9"/><stop offset="1" stop-color="#fff"/></linearGradient><linearGradient id="linear-gradient-22" x1="2107.14" y1="521.48" x2="2150.42" y2="521.48" gradientTransform="translate(-208.38 884.12) rotate(-20.71)" gradientUnits="userSpaceOnUse"><stop offset="0" stop-color="#fff"/><stop offset="0.44" stop-color="#e9f1f9"/><stop offset="1" stop-color="#d1e1f2"/></linearGradient><linearGradient id="linear-gradient-23" x1="2314.35" y1="1648.18" x2="2438.41" y2="1648.18" gradientTransform="translate(-208.38 884.12) rotate(-20.71)" gradientUnits="userSpaceOnUse"><stop offset="0" stop-color="#d1e1f2"/><stop offset="0.39" stop-color="#d6e5f3"/><stop offset="0.88" stop-color="#e6eff8"/><stop offset="1" stop-color="#ebf2f9"/></linearGradient><linearGradient id="linear-gradient-24" x1="2448.47" y1="1610.61" x2="2608.22" y2="1610.61" xlink:href="#linear-gradient-23"/><linearGradient id="linear-gradient-25" x1="1776.64" y1="824.41" x2="1968.13" y2="824.41" gradientTransform="matrix(0.88, -0.48, 0.48, 0.88, -149.14, 1404.71)" gradientUnits="userSpaceOnUse"><stop offset="0" stop-color="#d1e1f2"/><stop offset="0.28" stop-color="#d6e5f4"/><stop offset="0.62" stop-color="#e6eff8"/><stop offset="1" stop-color="#fff"/></linearGradient><linearGradient id="linear-gradient-26" x1="1828.33" y1="1104.18" x2="2626.4" y2="1104.18" xlink:href="#linear-gradient-23"/><linearGradient id="linear-gradient-27" x1="2132.94" y1="524" x2="2429.76" y2="524" xlink:href="#linear-gradient-21"/><linearGradient id="linear-gradient-28" x1="2553.44" y1="578.19" x2="2744.07" y2="578.19" gradientTransform="translate(-208.38 884.12) rotate(-20.71)" xlink:href="#linear-gradient-25"/><linearGradient id="linear-gradient-29" x1="2576.98" y1="783.84" x2="2707.82" y2="783.84" gradientTransform="translate(-208.38 884.12) rotate(-20.71)" xlink:href="#linear-gradient-25"/><linearGradient id="linear-gradient-30" x1="2265.59" y1="1059.78" x2="2307.35" y2="776.71" gradientTransform="translate(-208.38 884.12) rotate(-20.71)" xlink:href="#linear-gradient-25"/></defs><g class="cls-1"><g id="Layer_2" data-name="Layer 2"><g id="Background"><rect class="cls-2" width="3199.18" height="1998.75"/></g><g id="Graphics"><path class="cls-3" d="M1273,1624.78a3.25,3.25,0,1,1-3.25-3.25A3.24,3.24,0,0,1,1273,1624.78Z"/><path class="cls-3" d="M1705.73,1591a.52.52,0,1,1-1,0,.52.52,0,1,1,1,0Z"/><path class="cls-3" d="M1983.35,1420.22a.93.93,0,1,1-.93-.93A.93.93,0,0,1,1983.35,1420.22Z"/><path class="cls-3" d="M1450.3,1528.32a.87.87,0,1,1-.87-.87A.87.87,0,0,1,1450.3,1528.32Z"/><path class="cls-3" d="M1064.18,1393a3.26,3.26,0,1,1-3.25-3.25A3.26,3.26,0,0,1,1064.18,1393Z"/><path class="cls-3" d="M1744.21,516.58a3.25,3.25,0,1,1-3.25-3.25A3.25,3.25,0,0,1,1744.21,516.58Z"/><path class="cls-3" d="M1795.57,694.86a3.26,3.26,0,1,1-3.26-3.25A3.25,3.25,0,0,1,1795.57,694.86Z"/><path class="cls-3" d="M2591.86,297.9a3.25,3.25,0,1,1-3.25-3.26A3.25,3.25,0,0,1,2591.86,297.9Z"/><path class="cls-3" d="M2976.36,879.6a3.26,3.26,0,1,1-3.25-3.26A3.26,3.26,0,0,1,2976.36,879.6Z"/><path class="cls-3" d="M3142.63,1377.63a3.26,3.26,0,1,1-3.26-3.25A3.26,3.26,0,0,1,3142.63,1377.63Z"/><path class="cls-3" d="M2764,1691.46a3.26,3.26,0,1,1-3.26-3.25A3.26,3.26,0,0,1,2764,1691.46Z"/><path class="cls-3" d="M2036.69,1573.74a3.26,3.26,0,1,1-3.25-3.25A3.25,3.25,0,0,1,2036.69,1573.74Z"/><path class="cls-3" d="M2194,1118.75a3.25,3.25,0,1,1-3.25-3.26A3.24,3.24,0,0,1,2194,1118.75Z"/><path class="cls-3" d="M2465.84,1299.67a3.26,3.26,0,1,1-3.26-3.25A3.25,3.25,0,0,1,2465.84,1299.67Z"/><path class="cls-3" d="M1987.49,591.42a3.26,3.26,0,1,1-3.26-3.25A3.25,3.25,0,0,1,1987.49,591.42Z"/><path class="cls-3" d="M1190.39,213.32a3.26,3.26,0,1,1-3.26-3.26A3.26,3.26,0,0,1,1190.39,213.32Z"/><path class="cls-3" d="M785.36,366.38a3.26,3.26,0,1,1-3.25-3.25A3.25,3.25,0,0,1,785.36,366.38Z"/><path class="cls-3" d="M230.06,634.46a3.25,3.25,0,1,1-3.25-3.25A3.25,3.25,0,0,1,230.06,634.46Z"/><path class="cls-3" d="M112.88,984.45a3.25,3.25,0,1,1-3.25-3.25A3.25,3.25,0,0,1,112.88,984.45Z"/><circle class="cls-3" cx="692.58" cy="1526.74" r="3.25"/><path class="cls-3" d="M719.59,1901.73a3.26,3.26,0,1,1-3.26-3.25A3.25,3.25,0,0,1,719.59,1901.73Z"/><path class="cls-3" d="M226.05,1480.91a3.26,3.26,0,1,1-3.25-3.25A3.26,3.26,0,0,1,226.05,1480.91Z"/><path class="cls-3" d="M1273.43,1843.77a3.26,3.26,0,1,1-3.25-3.26A3.26,3.26,0,0,1,1273.43,1843.77Z"/><path class="cls-3" d="M1993.9,1770a3.25,3.25,0,1,1-3.25-3.26A3.25,3.25,0,0,1,1993.9,1770Z"/><path class="cls-3" d="M2642.87,1915.42a3.25,3.25,0,1,1-3.25-3.25A3.24,3.24,0,0,1,2642.87,1915.42Z"/><path class="cls-3" d="M2990.63,1881.9a3.26,3.26,0,1,1-3.25-3.25A3.26,3.26,0,0,1,2990.63,1881.9Z"/><path class="cls-3" d="M3133,382.17a3.25,3.25,0,1,1-3.25-3.25A3.25,3.25,0,0,1,3133,382.17Z"/><path class="cls-3" d="M3123.18,62.17a3.26,3.26,0,1,1-3.26-3.26A3.26,3.26,0,0,1,3123.18,62.17Z"/><path class="cls-3" d="M2781.76,172.39a3.26,3.26,0,1,1-3.25-3.25A3.26,3.26,0,0,1,2781.76,172.39Z"/><path class="cls-3" d="M1449.15,87.28a3.26,3.26,0,1,1-3.26-3.25A3.26,3.26,0,0,1,1449.15,87.28Z"/><path class="cls-3" d="M747.85,73.88a3.26,3.26,0,1,1-3.26-3.26A3.26,3.26,0,0,1,747.85,73.88Z"/><path class="cls-3" d="M455.78,333.38a3.26,3.26,0,1,1-3.25-3.26A3.26,3.26,0,0,1,455.78,333.38Z"/><path class="cls-3" d="M1661,1504.59a3.26,3.26,0,1,1-3.25-3.25A3.24,3.24,0,0,1,1661,1504.59Z"/><path class="cls-3" d="M1777,1044.76a3.26,3.26,0,1,1-3.25-3.25A3.25,3.25,0,0,1,1777,1044.76Z"/><path class="cls-3" d="M1352.72,1040.38a3.26,3.26,0,1,1-3.26-3.26A3.26,3.26,0,0,1,1352.72,1040.38Z"/><path class="cls-3" d="M186.71,1048.29a3.26,3.26,0,1,1-3.26-3.26A3.26,3.26,0,0,1,186.71,1048.29Z"/><path class="cls-3" d="M1226.93,1143.62a3.26,3.26,0,1,1-3.26-3.25A3.25,3.25,0,0,1,1226.93,1143.62Z"/><path class="cls-3" d="M1240.14,814.57a3.25,3.25,0,1,1-3.25-3.25A3.25,3.25,0,0,1,1240.14,814.57Z"/><path class="cls-3" d="M619.93,577.39a3.25,3.25,0,1,1-3.25-3.25A3.24,3.24,0,0,1,619.93,577.39Z"/><path class="cls-3" d="M1863.76,1241.84a3.26,3.26,0,1,1-3.26-3.26A3.25,3.25,0,0,1,1863.76,1241.84Z"/><path class="cls-3" d="M1661.32,186.24a3.26,3.26,0,1,1-3.26-3.25A3.26,3.26,0,0,1,1661.32,186.24Z"/><circle class="cls-4" cx="1469.05" cy="1263.82" r="37.96" transform="matrix(0.91, -0.41, 0.41, 0.91, -387.12, 707.07)"/><circle class="cls-5" cx="104.55" cy="1311.84" r="25.58" transform="translate(-1207.1 1204.91) rotate(-80.78)"/><circle class="cls-6" cx="656.58" cy="242.87" r="90.02"/><circle class="cls-7" cx="657.5" cy="242.87" r="51.16"/><circle class="cls-8" cx="722.68" cy="210.74" r="14.03" transform="translate(398.42 890.1) rotate(-80.74)"/><path class="cls-9" d="M1356.89,1998.75h725.26C2013.86,1868.15,1877.1,1779,1719.52,1779S1425.18,1868.15,1356.89,1998.75Z"/><path class="cls-10" d="M0,566.71C217.38,546,387.41,362.92,387.41,140.11A428,428,0,0,0,364,0H0Z"/><path class="cls-11" d="M186.41,1536.62A420.18,420.18,0,0,0,0,1579.94v418.81H606.46q1.88-19.85,1.9-40.18C608.36,1725.54,419.45,1536.62,186.41,1536.62Z"/><path class="cls-12" d="M2063,0c23.37,129.47,136.63,227.69,272.83,227.69S2585.3,129.47,2608.66,0Z"/><circle class="cls-13" cx="2986.82" cy="645.97" r="66.9" transform="translate(1913.97 3507.33) rotate(-81.65)"/><path class="cls-8" d="M120.59,694.46a8,8,0,1,1-8-8A8,8,0,0,1,120.59,694.46Z"/><path class="cls-8" d="M992.08,1579.72a8,8,0,1,1-8-8A8,8,0,0,1,992.08,1579.72Z"/><circle class="cls-8" cx="837.69" cy="651.55" r="8.02"/><circle class="cls-14" cx="921.06" cy="437.44" r="8.02"/><circle class="cls-14" cx="2120.48" cy="250.88" r="8.02" transform="matrix(0.23, -0.97, 0.97, 0.23, 1389.12, 2257)"/><circle class="cls-15" cx="2756.56" cy="92.36" r="25"/><circle class="cls-15" cx="670.2" cy="1733.44" r="13.62"/><circle class="cls-15" cx="321.49" cy="492.23" r="9.33"/><circle class="cls-15" cx="3027.28" cy="1952.56" r="17.54"/><circle class="cls-16" cx="2863.89" cy="1736.38" r="32.06"/><path class="cls-15" d="M1178.94,437.17l16.2-8.62c-1.4-2.64-2.75-5.26-4.07-7.87-23.58-46.88-28.73-83.81-13.75-98.79s51.9-9.83,98.8,13.76a463.36,463.36,0,0,1,48.29,28.4l10.18-15.28a481.66,481.66,0,0,0-50.23-29.52c-55.93-28.14-98.56-31.8-120-10.34s-17.8,64.1,10.34,120C1176.06,431.67,1177.47,434.41,1178.94,437.17Z"/><path class="cls-15" d="M1554.48,751.6c16.4,0,29.52-4.58,38.74-13.8,21.47-21.47,17.8-64.09-10.34-120a481.7,481.7,0,0,0-29.51-50.22l-15.28,10.18a462.54,462.54,0,0,1,28.4,48.28c23.58,46.89,28.72,83.83,13.75,98.8s-51.9,9.83-98.79-13.76l-8.25,16.4C1505.11,743.51,1532.69,751.6,1554.48,751.6Z"/><circle class="cls-17" cx="1391.3" cy="527.59" r="193.28"/><path class="cls-15" d="M1473.2,727.46l8.25-16.4c-102.31-51.45-230.74-178.19-286.31-282.52l-16.2,8.63C1237,546.15,1366.24,673.66,1473.2,727.46Z"/><circle class="cls-18" cx="1232.66" cy="495.86" r="53.72"/><path class="cls-19" d="M1558.78,652.78a30.06,30.06,0,1,0,30.06-30.07A30.06,30.06,0,0,0,1558.78,652.78Z"/><path class="cls-20" d="M1462.23,727.46a38.93,38.93,0,1,0,38.93-38.93A38.93,38.93,0,0,0,1462.23,727.46Z"/><path class="cls-3" d="M1419.66,705.21A12.26,12.26,0,1,0,1431.92,693,12.26,12.26,0,0,0,1419.66,705.21Z"/><path class="cls-21" d="M1322.33,688.53a12.26,12.26,0,1,0,12.26-12.26A12.26,12.26,0,0,0,1322.33,688.53Z"/><path class="cls-21" d="M1382.73,581.5a6,6,0,1,0,6-6A6,6,0,0,0,1382.73,581.5Z"/><path class="cls-21" d="M1261.53,345.48a6,6,0,1,0,6-6A6,6,0,0,0,1261.53,345.48Z"/><path class="cls-3" d="M1274.13,586.36a12.26,12.26,0,1,0,12.26-12.26A12.25,12.25,0,0,0,1274.13,586.36Z"/><circle class="cls-3" cx="1267.55" cy="416.29" r="6.13"/><circle class="cls-22" cx="1144.41" cy="404.03" r="6.13"/><path class="cls-23" d="M1294.76,649.76a3,3,0,1,0,3-3A3,3,0,0,0,1294.76,649.76Z"/><path class="cls-24" d="M1501.16,632.57a3,3,0,1,0,3-3A3,3,0,0,0,1501.16,632.57Z"/><path class="cls-25" d="M1229.65,394a3,3,0,1,0,3-3A3,3,0,0,0,1229.65,394Z"/><circle class="cls-26" cx="1945.39" cy="133.54" r="90.02"/><circle class="cls-14" cx="1944.47" cy="132.62" r="46.16"/><circle class="cls-27" cx="2986.82" cy="222.42" r="90.02"/><circle class="cls-28" cx="2985.89" cy="221.5" r="46.16"/><path class="cls-28" d="M2870.43,1950.82a22.35,22.35,0,1,0,0-31.6A22.35,22.35,0,0,0,2870.43,1950.82Z"/><path class="cls-28" d="M2302.51,525.28a16.85,16.85,0,1,0,0-23.83A16.85,16.85,0,0,0,2302.51,525.28Z"/><path class="cls-15" d="M1763.05,862a43.53,43.53,0,1,1-43.53-43.53A43.53,43.53,0,0,1,1763.05,862Z"/><path class="cls-29" d="M1719.52,818.45a43.29,43.29,0,0,0-21.17,5.52,43.5,43.5,0,0,1,39.4,77.5,43.51,43.51,0,0,0-18.23-83Z"/><path class="cls-15" d="M2278.05,1722.27a65,65,0,1,1-65-65A65,65,0,0,1,2278.05,1722.27Z"/><path class="cls-30" d="M2213.06,1657.28a64.6,64.6,0,0,0-31.61,8.24,64.94,64.94,0,0,1,58.83,115.7,65,65,0,0,0-27.22-123.94Z"/><path class="cls-15" d="M998.52,1736.38a62.06,62.06,0,1,1-62.06-62.06A62.06,62.06,0,0,1,998.52,1736.38Z"/><path class="cls-31" d="M936.46,1674.32a61.76,61.76,0,0,0-30.19,7.86,62,62,0,0,1,56.18,110.5,62,62,0,0,0-26-118.36Z"/><path class="cls-32" d="M2243.68,552.58l26.57-13.51a15.33,15.33,0,0,0,7.39-19.08l-12-31.73a15.32,15.32,0,0,0-18.16-9.43l-28.86,7.44Z"/><polygon class="cls-33" points="2272.93 527.47 2257.52 486.72 2226.05 489.81 2252.86 492.89 2272.93 527.47"/><path class="cls-34" d="M2000.05,644.68l-28.87,7.43a15.33,15.33,0,0,1-18.16-9.42L1941,611a15.33,15.33,0,0,1,7.39-19.08L1975,578.37Z"/><path class="cls-35" d="M2519.22,1554.47s29.58,5.92,34.16,24.39c2.91,11.71,11.1,37.32,16.71,54.52a69.88,69.88,0,0,0,18.6,29.28l5,4.74a36.23,36.23,0,0,0,25.69,9.87c21.28-.55,56.31-7.5,56.47-47.24a67.59,67.59,0,0,0-14.13-41c-8.11-10.66-20.74-31.77-32.35-70,0,0-20.26-35.09-56.41-30Z"/><path class="cls-36" d="M2590.64,1583.29c-1.51-4.34-3.16-8.78-6.3-12.13-3.32-3.53-7.94-5.48-12.19-7.8a68.4,68.4,0,0,1-30.83-35.76l-22.1,26.87s29.58,5.92,34.16,24.39c2.91,11.71,11.1,37.32,16.71,54.52a69.88,69.88,0,0,0,18.6,29.28l5,4.74a36.23,36.23,0,0,0,25.69,9.87,92.85,92.85,0,0,0,22-3.07c0-.84-.06-1.69-.16-2.53-2.24-20.05-22-32.66-33.59-49.18C2599.49,1610.78,2595.34,1596.79,2590.64,1583.29Z"/><path class="cls-33" d="M2519.33,1554.33l-.11.14.88.19Z"/><path class="cls-33" d="M2661.76,1589c-8.11-10.66-20.74-31.77-32.35-70,0,0-14.25-24.67-40.16-29.62,17.77,8.7,27.37,25.32,27.37,25.32,11.61,38.22,24.25,59.33,32.35,70a67.6,67.6,0,0,1,14.13,41c-.15,39.73-35.19,46.68-56.47,47.23a35.65,35.65,0,0,1-5.76-.33,35.9,35.9,0,0,0,18.55,4.63c21.28-.55,56.31-7.5,56.47-47.24A67.59,67.59,0,0,0,2661.76,1589Z"/><path class="cls-37" d="M2624.6,1438.46l15.32,55.56a35.61,35.61,0,0,0,13.1,19.18c12.81,9.49,34.51,28.92,40,54.85,7.58,35.78,147.37,6,126.56-50.12a11.41,11.41,0,0,0-11.49-7.37h0l-5.6-19.46a28.62,28.62,0,0,0-17.81-19.07c-18.5-6.61-50.59-21.56-61.36-48.34Z"/><path class="cls-36" d="M2819.58,1517.93a11.41,11.41,0,0,0-11.49-7.37h0l-5.6-19.46a28.62,28.62,0,0,0-17.81-19.07c-18.5-6.61-50.59-21.56-61.36-48.34l-39.4,5.89q2.88,9.3,5.9,18.55c1.39,4.25,2.93,8.68,6.23,11.69,4.31,4,10.6,4.62,16.36,5.66a89.06,89.06,0,0,1,37,16c6.32,4.68,12.15,10.39,15.35,17.57,2.8,6.3,3.4,13.32,4.88,20,3.46,15.82,12.72,31.16,27.35,38.11a40.92,40.92,0,0,0,6.58,2.46C2817.88,1548.71,2825.71,1534.46,2819.58,1517.93Z"/><path class="cls-33" d="M2687.41,1547.85c-5.49-25.94-27.19-45.37-40-54.86a35.55,35.55,0,0,1-12.64-17.62l5.14,18.65a35.61,35.61,0,0,0,13.1,19.18c12.81,9.49,34.51,28.92,40,54.85,7.58,35.78,147.37,6,126.56-50.12a11.32,11.32,0,0,0-3.77-5.07C2809.57,1558.84,2694.28,1580.25,2687.41,1547.85Z"/><path class="cls-38" d="M1944.16,1155.58s24.7,41.43,47.11,59.36l-.71,2.94a18.59,18.59,0,0,1-23.44,13.45c-12.08-3.62-25.9-10.95-29-25.65L1927.36,1318a12,12,0,0,1-12.2,10.85h0a12,12,0,0,1-11.73-12.56l3.3-70-26.88,85.41a11.92,11.92,0,0,1-13.95,8h0a11.91,11.91,0,0,1-9.15-13.62l14.18-83.52-27.65,61.69a10.69,10.69,0,0,1-14.23,5.34h0a10.69,10.69,0,0,1-5.57-13.34l22.93-63.42-30,34.69a9.59,9.59,0,0,1-13,1.42h0a9.58,9.58,0,0,1-2-13.36l38.7-81.52s11.1-31.26,32.31-54.11C1872.48,1119.93,1877,1129.61,1944.16,1155.58Z"/><path class="cls-39" d="M2433.48,764.26c11.72,24.74,90.24,29.15,90.24,29.15s2.45-90.34-10.95-138.13-130.32-48.67-130.32-48.67c-33.65-47.9-130.38-3.57-130.38-3.57l-193.29,80.84c-52.63-15.86-66.58,50-66.58,50-29.81-8.94-46.67,53.39-46.67,53.39s-51.74,110.89-36,167.9c0,0-72.45,113.67-64.6,190,0,0,35.27,62.45,99.24,22,0,0,20.79-6.69,6.79-37.55,0,0,57.21-70.59,57.2-132.38,0,0,40-23.68,44.64-70.11l71.85,140.72a87.92,87.92,0,0,1,4.63,12.25s17.57,176,187.5,335.63,202.07,152.13,202.07,152.13,69.15-14.48,54.17-78.77c0,0-54.26-149.71-163.54-155,0,0,22.05-90.69-33.78-188.32,1.34-.65,2.58-1.33,3.72-2,23.43,19.39,83.7,64,147.43,69,0,0,12.91,151.35,99.17,237.66,0,0,73.32,21.25,106.09-40.1,0,0-15.24-262.4-87.17-335.47l-176-132.46h0C2468,867.27,2440,783.06,2433.48,764.26Z"/><path class="cls-40" d="M1942.91,1158.48c-58.65,37.13-93.17-12.27-98.51-20.74.1,2.51.26,5,.51,7.45,0,0,35.27,62.45,99.24,22,0,0,16.14-5.21,10.38-27.58C1954.72,1154.66,1942.91,1158.48,1942.91,1158.48Z"/><path class="cls-40" d="M2103.63,451.36h0a9.37,9.37,0,0,0-12.08-5.45l-46.66,17.64a9.36,9.36,0,0,0-5.45,12.07h0a142.94,142.94,0,0,0-52.5,168.14s8.87,58.71,24.94,66c65.11,29.39,237.88-35.92,267.27-101,7.26-16.07-24.93-66-24.93-66A142.92,142.92,0,0,0,2103.63,451.36Z"/><path class="cls-41" d="M2100.94,444.26h0a9.36,9.36,0,0,0-12.07-5.45l-46.66,17.64a9.36,9.36,0,0,0-5.45,12.07h0a142.91,142.91,0,0,0-52.5,168.13s8.86,58.72,24.93,66c65.11,29.39,237.89-35.92,267.28-101,7.25-16.07-24.94-66-24.94-66A142.91,142.91,0,0,0,2100.94,444.26Z"/><path class="cls-40" d="M2269.53,598.37C2243,658.31,2071.92,723,2012.4,695.56c-8.69-4-12.05-25.49-13.35-40.69-.8-9.35-2-18.65-3.21-27.93-7.49-55.9,28.08-112.39,86.69-134.55h0c59.57-22.51,124.75-2.69,155.53,45.87,3.86,6.09,7.93,12,12.33,17.8C2259.61,568.12,2273.72,588.88,2269.53,598.37Z"/><path class="cls-42" d="M2240,559.61c-3.92-5.12-7.55-10.43-11-15.86-27.42-43.26-85.47-60.91-138.53-40.85h0a124.72,124.72,0,0,0-54.12,39.41,125.42,125.42,0,0,1,48.5-32.77h0c53-20.05,111.11-2.4,138.52,40.86,3.44,5.42,7.07,10.73,11,15.85,8.22,10.74,20.79,29.24,17,37.68a57.18,57.18,0,0,1-6.91,11.4,66.53,66.53,0,0,0,12.53-18C2260.79,588.84,2248.22,570.34,2240,559.61Z"/><polygon class="cls-33" points="1961.51 645.19 1946.1 604.44 1971.75 585.93 1953.68 605.98 1961.51 645.19"/><path class="cls-33" d="M1994.2,727.87c-1.1,2.07-2.33,6-2,6a20.21,20.21,0,0,0-5.67-.87c.5,0,2.89,5.71,3.3,6.4a26.57,26.57,0,0,0,3.87,5.13,34.27,34.27,0,0,0,2.58,2.39c1.2,1,2.51,1.9,3.71,2.91,3.68,3.09,6.28,7.39,9.22,11.14A306.46,306.46,0,0,0,2032,786.86c1,1,1.94,2,2.92,2.92,5.65,5.59,12.7,11.35,20.56,10.2,1.52-.23,3.18-.88,3.71-2.32a4.32,4.32,0,0,0-.47-3.29c-2.26-4.65-7-7.47-11.33-10.33a115.78,115.78,0,0,1-23.75-21c-3-3.54-6.7-7.41-8.24-11.88s-4.12-8.35-6.21-12.61a35.47,35.47,0,0,0-4.63-7.71c-1.81-2.1-6.34-5.67-9.39-4.21A3.17,3.17,0,0,0,1994.2,727.87Z"/><path class="cls-36" d="M2137.59,1067.89c1.54-1,2.48-2.73,3.38-4.34a51.88,51.88,0,0,1,35.78-25.35c-3.28-10.2-13.53-16.58-23.76-19.81s-21.12-4.22-31-8.26-19.24-12.35-20-23c-.61-8.78,4.55-18.13.61-26-1.31-2.61-3.5-4.67-5.64-6.66l-15.75-14.71c-8.5-7.93-17.92-13.69-25.64-23-5.36-6.46-11-14.12-19.38-15,1.18,8.66,4.12,16.9,6.09,25.39,1.38,6,4.45,11,7.28,16.29a86,86,0,0,0,3.24-16.36c-.13,1.27,2.23,4.36,2.79,5.45l29.58,57.94q9.18,18,18.37,36c3,5.88,4.27,11.46,8.26,16.83q7.8,10.5,16.21,20.54c2.28,2.73,5.6,5.72,8.9,4.4A5.08,5.08,0,0,0,2137.59,1067.89Z"/><path class="cls-33" d="M2008.18,997.15v0c2.49-.43,6.25-3.93,2.78-5.52-2.89-1.33-6.38-1.15-9.47-.94-7.9.54-15.87,1.09-23.46,3.32.56,4.67,6,7.16,10.71,7.17,3.84,0,7.82-1.44,11.64-.9,2.63.37,5,1.31,7.66,1.57C2008.08,1000.25,2008.07,998.69,2008.18,997.15Z"/><path class="cls-33" d="M1933.7,1122.2c-8.18-1-15.32-5.49-22.78-9.07-1.45-.7-3.5-1.22-4.42.11a41.85,41.85,0,0,0,27.58,18.73c1.8.34,3.82.23,5.56.73,4.65,1.31,9.19,3,14,3.89-.46-1.21-.84-2.46-1.31-3.67-.3-.77-1.51-2.61-1.37-3.41s2-2.56,2.6-3.3c.83-1.1,3.61-3.9,1.93-5.3-1.39-1.16-5.13-.13-6.67.1-3.52.51-7,1.14-10.58,1.34A26.51,26.51,0,0,1,1933.7,1122.2Z"/><path class="cls-36" d="M2412.86,741.46c-1.6-.32-3.47-.57-4.69.52-1.58,1.44-.9,4-.1,6,2.24,5.54,4.08,11.6,6.95,16.84.85,1.55,1.87,2.86,2.26,4.61.89,4,.74,8.27,1.27,12.32a107.3,107.3,0,0,0,4.45,20.12c4.09,12.28,12.27,22.89,16,35.3,2.29,7.72-.41,15.26-3,22.6a50,50,0,0,1-5.23,11.06c-3.5,5.24-8.36,8.77-13.15,12.71a61.81,61.81,0,0,0-15.06,17.94c-4.36,7.77-12.15,19.63-10.64,29,.7,4.38,4.73,8.51,9.08,7.72,2.7-.5,4.74-2.64,6.78-4.47,8.89-8,24.3-13.68,36.28-10,2.77.84,3.48,1.92,4.77,4.62a52.57,52.57,0,0,1,4.88,18.53c.87,11-1.17,23.12-8.1,31.91-3.49,4.43-6.07,8.75-10.68,12.22a81.19,81.19,0,0,1-14.18,8.1,1211.62,1211.62,0,0,1-166.8,64.58c-23.47,7.14-47.51,13.62-72,13.54-18-.06-36.66-3.57-54.41-2.58.56,1.55,1.18,3.36,1.84,5.46,0,0,2.47,24.73,14.5,64.06a61,61,0,0,0,19.87-1.6c5.66-1.41,10.54-4.48,16-6.15,12.81-3.88,23.19-11.61,34.86-18.31,16.25-9.33,37.24-15.69,53.13-5.76,7.87,4.92,13.59,13.4,22.44,16.2,9.08,2.87,18.76-1.06,27.44-5q24.67-11.15,49-23.08c7.39-3.61,15.28-7.82,18.7-15.3,2.23-4.88,2.19-10.45,3.32-15.69,4.24-19.59,23.65-31.62,41.82-40.07s38.36-16.84,47.88-34.47c6.95-12.88,6.64-27.78,4-42.51l-13.37-10.07c-.33-25.9-3.87-52.9-8.64-77.91,0-.08,0-.16-.05-.23q-2.25-11.76-4.92-23.44c-.06-.23-.11-.47-.16-.71-.53-2.29-1.07-4.57-1.62-6.86-.07-.31-.15-.63-.22-1-.56-2.29-1.13-4.59-1.7-6.88-.11-.42-.22-.84-.32-1.26-.59-2.3-1.18-4.61-1.79-6.91l-.18-.69q-2-7.61-4.18-15.17c-.82-2.84-1.65-5.69-2.5-8.52-.17-.59-.35-1.18-.52-1.75q-1-3.24-2-6.46c-.4-1.3-.8-2.55-1.18-3.75q-.93-3-1.9-5.89c-.28-.86-.55-1.69-.81-2.47q-1.36-4.12-2.79-8.22h0c11.72,24.74,90.24,29.15,90.24,29.15s0-.33,0-.93c0-.27,0-.6,0-1v-.12c0-.14,0-.29,0-.45v-.11q0-.77,0-1.74V789c.08-4.68.15-12.79,0-23V766a212.56,212.56,0,0,1-32.5-4.44C2464.91,756,2439.31,746.91,2412.86,741.46Z"/><path class="cls-33" d="M1947.86,1221.52a52.93,52.93,0,0,1-7.9-20c-4.52,3.39-4.38,10-4.22,15.7.63,22.24-5.24,44.09-11,65.58-1.68,6.26-3.38,12.74-2.38,19.15a46.22,46.22,0,0,0,3.34,10.36l1.82,4.43,10.66-111A28.07,28.07,0,0,0,1947.86,1221.52Z"/><path class="cls-43" d="M2112.25,810.63a22.14,22.14,0,1,1-28.54-12.89A22.14,22.14,0,0,1,2112.25,810.63Z"/><circle class="cls-44" cx="2091.54" cy="818.45" r="14.92" transform="translate(652.32 2542.71) rotate(-71.52)"/><rect class="cls-36" x="2254.24" y="718.62" width="94.33" height="28.86" transform="translate(-110.53 861.09) rotate(-20.71)"/><path class="cls-43" d="M1996.23,691.34a275.12,275.12,0,0,0,7.62,76.33,297.76,297.76,0,0,0,26.47,69.5,355,355,0,0,0,42.15,62.4c8.24,9.77,17,19.14,26.09,28.11a343.65,343.65,0,0,0,27.88,25,162.34,162.34,0,0,0,32.17,19.69,329.27,329.27,0,0,0,33.61,13c2.84,1,5.69,1.9,8.55,2.85,3.52,1.17,7.88.26,9.41-3.56,1.32-3.28.22-8.17-3.56-9.42-11.21-3.72-22.44-7.45-33.37-12-5.44-2.24-10.81-4.68-16-7.4-2.65-1.39-5.26-2.84-7.83-4.38l-.77-.46c1.18.7.26.16,0,0-.6-.37-1.19-.74-1.77-1.12-1.31-.85-2.6-1.71-3.87-2.6-10.11-7.06-19.37-15.35-28.35-23.78q-6.66-6.26-13-12.79l-1.51-1.56c-.2-.21-1.91-2-.86-.9q-1.61-1.68-3.18-3.38-3-3.3-6-6.65a354.16,354.16,0,0,1-42.56-59.08c-.76-1.35-1.52-2.69-2.26-4l-1-1.89c0,.08.57,1.06.17.32l-.72-1.37q-2.17-4.1-4.23-8.26-4-8.08-7.48-16.4a296.22,296.22,0,0,1-12.1-34.62q-1.26-4.49-2.37-9l-.51-2.11c0-.22-.34-1.5-.13-.59s0-.16-.07-.28c-.36-1.61-.71-3.23-1-4.85q-1.86-9-3.13-18a234.67,234.67,0,0,1-2.46-34.83c0-1.45-10.58-17.06-12.27-15.35a5.32,5.32,0,0,0-1.61,3.55Z"/><path class="cls-43" d="M2279,584.45a275.15,275.15,0,0,1,44.78,62.28,297.63,297.63,0,0,1,26.12,69.63,354,354,0,0,1,9.66,74.68c.29,12.78-.06,25.59-1,38.34a341.44,341.44,0,0,1-4.39,37.18,162.38,162.38,0,0,1-11.1,36,328,328,0,0,1-16.63,31.95c-1.5,2.61-3,5.2-4.53,7.8-1.87,3.21-5.74,5.41-9.42,3.56-3.15-1.59-5.56-6-3.56-9.42,6-10.21,11.91-20.44,17.12-31.06,2.59-5.28,5-10.66,7.12-16.15,1.07-2.79,2.07-5.61,3-8.46l.27-.85c-.42,1.3-.09.29,0,0,.2-.67.39-1.34.58-2,.42-1.5.81-3,1.18-4.51,2.91-12,4.38-24.33,5.54-36.59q.85-9.09,1.31-18.22c0-.72.07-1.44.1-2.16,0-.3.11-2.78.06-1.25.05-1.54.1-3.09.14-4.64q.11-4.49.12-9a353.34,353.34,0,0,0-7.17-72.46c-.31-1.51-.64-3-1-4.53-.15-.7-.31-1.4-.47-2.11,0,.09.28,1.18.08.36l-.36-1.51q-1.08-4.5-2.3-9-2.36-8.7-5.24-17.24a294.34,294.34,0,0,0-13.82-34q-2-4.2-4.18-8.33l-1-1.92c-.1-.19-.73-1.35-.28-.53s-.08-.14-.14-.25c-.8-1.45-1.6-2.9-2.42-4.34q-4.53-8-9.59-15.59a233.85,233.85,0,0,0-21.19-27.75c-1-1.08-3.35-19.79-.95-19.63a5.32,5.32,0,0,1,3.55,1.6Z"/><path class="cls-40" d="M2484.35,953.94h0a40.52,40.52,0,0,1-16.13-29.68c-.38-5.91-.91-11.84-1.55-17.76a559.12,559.12,0,0,1-82.13,61.37q-12.81,7.88-26,15.07a642.89,642.89,0,0,1-122.39,49.52q-17.64,5.14-35.51,9.34a774.68,774.68,0,0,1-82.19,13.91l6.18,12.11a71.89,71.89,0,0,1,3.19,7.93,40.43,40.43,0,0,1,1.88,7.83c.49,3.57,1.45,9.76,3.17,18.17q17-2.18,34-5.07a764,764,0,0,0,104-25.31c2.76-.89,10.55,11.53,13.31,10.6a635.94,635.94,0,0,0,78.88-32.41c1.59-.79-1.86-14.9-.27-15.69a626.87,626.87,0,0,0,87.65-53Q2467.89,968.05,2484.35,953.94Z"/><path class="cls-36" d="M2509,1184.46c-13.86.09-27.22-4.72-40.23-9.47l-90.84-33.16,1.3,2,.19-.11c23.43,19.39,83.7,64,147.43,69,0,0,12.91,151.36,99.17,237.67,0,0,1.58.46,4.37,1a42.32,42.32,0,0,0-1.73-5.42q-34.17-89.1-68.35-178.21c-10.44-27.2-19.31-62.18,2-82C2546.93,1176.16,2527.11,1184.34,2509,1184.46Z"/><path class="cls-36" d="M2409.46,1334s20.14-82.83-26.81-175.39l-11.74-8.59c16.64,61.35,32.62,129.81,2.69,185.89-3.86,7.24-8,17.32-1.65,22.52,3.13,2.55,7.56,2.52,11.6,2.54a134.92,134.92,0,0,1,96.39,42c31.12,33.13,45,81.71,82.36,107.64a39.29,39.29,0,0,0,12,5.7,69.63,69.63,0,0,0-1.33-27.28S2518.74,1339.35,2409.46,1334Z"/><path class="cls-33" d="M1980.07,756.83c3.33-3.71,7-7.26,9-11.86,1.59-3.79,1.58-8.58-.71-11.82-27.41-2.81-42.82,54.16-42.82,54.16s-51.74,110.89-36,167.9c0,0-69.63,109.25-65,185.45,7.9-2.79,13.59-10.28,16.61-18.2,3.23-8.49,4-17.68,5.9-26.58,8.37-39.74,37.92-72.75,45.09-112.73,1-5.88,2.76-13.19,8.6-14.46,5.18-1.12,9.61,3.49,13.25,7.34s9.45,7.53,13.83,4.55c3.66-2.49,3.46-8.22,1-11.91s-6.38-6-9.76-8.89c-12.54-10.57-17-28.38-15.46-44.7s8.29-31.65,14.93-46.65c1-2.29,2.15-4.73,4.3-6,3.54-2.16,8-.35,12,.78s9.49.77,10.74-3.19C1949.43,826.89,1955.41,784.21,1980.07,756.83Z"/><path class="cls-33" d="M2382.45,606.61c-12-17.13-32.14-22.46-53-22.25q2.43,1.26,4.76,2.62c10.93,6.4,21.66,15,25.11,27.23,2.88,10.18.16,21,.21,31.6,0,4,1.45,9.05,5.42,9.41,5.72.52,6.24-8,7.43-13.59,1.75-8.21,9.73-13.92,18-15.56s16.72,0,24.94,1.64c16.3,3.32,33.53,7.4,45.23,19.22,6.67,6.74,10.93,15.42,16.11,23.35s11.92,15.58,21,18.26c7.31,2.15,16.24-.23,20.67-6a222.26,222.26,0,0,0-5.53-27.24C2499.37,607.5,2382.45,606.61,2382.45,606.61Z"/><path class="cls-45" d="M2460.64,586.57s-38.39-29.22-65.87-37.48l-.44-3a18.6,18.6,0,0,1,16.73-21.23c12.55-1.15,28.11.48,36.46,13l-31.93-108.19a12,12,0,0,1,7.26-14.62h0a12,12,0,0,1,15.57,7.28l23.1,66.2-7-89.28a11.9,11.9,0,0,1,9.93-12.67h0a11.91,11.91,0,0,1,13.58,9.21l18,82.78,2.61-67.56a10.69,10.69,0,0,1,11.21-10.26h0A10.7,10.7,0,0,1,2520.07,411l2.41,67.4,14.85-43.37a9.57,9.57,0,0,1,11.49-6.16h0a9.57,9.57,0,0,1,6.85,11.64l-13.54,52.86s15.17,34,4,63.1C2546.16,556.49,2532.69,585.56,2460.64,586.57Z"/><path class="cls-33" d="M2555.69,435.83c-6,3.32-9.2,11.63-11.11,18.8q-3.55,13.29-7.1,26.59c-2,7.41-4,14.95-8.11,21.43-3.36,5.31-8,9.7-11.73,14.76-4.8,6.48-8.07,14-11.3,21.34-1.07,2.44-2.11,5.34-.75,7.62a8.3,8.3,0,0,0,3.92,2.88c7.84,3.59,16,6.68,22.92,11.87a38,38,0,0,1,5.34,4.89c6.42-5.29,8.38-9.52,8.38-9.52,11.15-29.11-4-63.1-4-63.1l13.54-52.86A9.59,9.59,0,0,0,2555.69,435.83Z"/><path class="cls-33" d="M2443.71,535.61q3.9,4.27,8,8.34c2.09,2,4.16,4.18,6.8,5.51,2,1,4.11,1.72,6.06,2.85s5.53,4,7.84,2a2.14,2.14,0,0,0,.65-1c.51-1.55-.81-3.07-2-4.2a119.7,119.7,0,0,1-23.79-31.84c-3-5.87-6-12.41-10.75-16.65l11,37.2a27,27,0,0,0-9.61-8.76C2439.75,531.33,2441.77,533.48,2443.71,535.61Z"/><path class="cls-46" d="M2497.83,751.82c-7.25-42-23.19-125.82-40.34-161.09a5.31,5.31,0,0,1,4.73-7.62c21.54-.24,75-4.12,86.86-36.38,0,0,82.62,160,75.19,198.93-5.65,29.62-36.88,68.23-79.32,57.61C2520.45,797.14,2502.13,776.7,2497.83,751.82Z"/><path class="cls-33" d="M2549.08,546.73a38.13,38.13,0,0,1-9.4,14.2c1.09,3.29,2.26,6.54,3.48,9.74,7.29,19.15,15.14,37.68,19.63,57.73,1,4.42-.85,9.49-1.84,13.86a248.81,248.81,0,0,1-9.21,31.18c-1,2.82-2.15,5.71-2.11,8.72s1.52,6.22,4.3,7.36a8.48,8.48,0,0,0,4.94.21c4.86-1,8.91-4.26,12.93-7.18,4.58-3.34,10.51-7.08,16.42-5.26a16.26,16.26,0,0,1,9.38,8.57c2.07,4.94,3.12,10.64,4.39,15.83a111.56,111.56,0,0,1,3.18,19c1.32,19.16-4.23,38.08-5.89,57.22-.33,3.77-.48,7.56-.5,11.35,13.61-12,22.69-28.89,25.49-43.56C2631.7,706.71,2549.08,546.73,2549.08,546.73Z"/><path class="cls-40" d="M2460,596.21a5.31,5.31,0,0,1,5.26-5.11c21.54-.23,75-4.12,86.86-36.37l-3-8c-11.87,32.26-65.32,36.14-86.86,36.38a5.31,5.31,0,0,0-4.73,7.62Q2458.75,593.31,2460,596.21Z"/><path class="cls-40" d="M2435.08,426.08a8.24,8.24,0,1,1-10.62-4.79A8.23,8.23,0,0,1,2435.08,426.08Z"/><path class="cls-40" d="M2474.58,398.33a8.24,8.24,0,1,1-10.62-4.8A8.24,8.24,0,0,1,2474.58,398.33Z"/><path class="cls-40" d="M2516.62,411.52a8.24,8.24,0,1,1-10.62-4.8A8.24,8.24,0,0,1,2516.62,411.52Z"/><circle class="cls-40" cx="2545.99" cy="439.86" r="8.24" transform="translate(1724.96 2889.65) rotate(-81.27)"/><path class="cls-40" d="M2415.23,535.85c7.74-.65,13.7-4.85,13.32-9.38a4.5,4.5,0,0,0-.14-.83,58.59,58.59,0,0,0-17.35-.77,18.5,18.5,0,0,0-10.44,4.41C2401.41,533.55,2407.77,536.47,2415.23,535.85Z"/><path class="cls-36" d="M2489.77,1556.52a972.09,972.09,0,0,1-101.42-104.43c-10.49-12.57-20.77-25.51-33.53-35.77-14.51-11.68-31.69-19.47-47.64-29.1-2.82-1.71-5.88-3.87-6.37-7.14s1.87-6.3,4.21-8.68a92.6,92.6,0,0,1,23.71-17.5c-1.12-8.78-14.05-6.91-22.9-7.22-13.71-.5-24-12.07-33-22.51-27.23-31.89-57.23-61.46-82.57-94.88s-46.2-71.58-51.68-113.16l-2.82-1.16c14.15,59.22,57,184.33,181,300.73C2410.33,1503.59,2462.12,1540.81,2489.77,1556.52Z"/><path class="cls-40" d="M2411.47,1322.72c.46-3.29.93-7.23,1.32-11.76a300.29,300.29,0,0,1-40.85,30.35q-6.78,4.18-13.78,8a311.54,311.54,0,0,1-63.94,25.17q-7.2,2-14.46,3.71,9,9.79,18.61,19.58a333.21,333.21,0,0,0,42-13.89,311.74,311.74,0,0,0,75-44.16c1.89-1.5,3.76-3,5.61-4.59l-.11,0A11,11,0,0,1,2411.47,1322.72Z"/><path class="cls-36" d="M2644.92,1074.8l-163.41-123c9,37.19,20.95,76.88,52.45,98.14,15.86,10.71,34.89,15.33,53.18,21,3.32,1,6.8,2.19,9.09,4.8,7.46,8.51-2.14,26,7.78,31.44s21.09-11.75,31.27-7.07c4.1,1.88,5.93,6.6,7.36,10.88A2408.56,2408.56,0,0,1,2722,1410.82a38.25,38.25,0,0,0,8.59,2.17c.51-.89,1-1.8,1.51-2.72C2732.09,1410.27,2716.85,1147.87,2644.92,1074.8Z"/><path class="cls-40" d="M2529.18,1231.23a278.28,278.28,0,0,0,50.63-35.5,301.72,301.72,0,0,0,42.65-46,294.84,294.84,0,0,0,32-53.86c.93-2,1.82-4.1,2.7-6.17a113,113,0,0,0-12.2-14.9l-5.65-4.26a272,272,0,0,1-15.06,32.79q-3.32,6.09-6.93,12a287.19,287.19,0,0,1-34,44.29q-5.05,5.38-10.39,10.49a281.22,281.22,0,0,1-44.56,34.31c-4,2.46-8,4.81-12.08,7.06l.27,0a13.58,13.58,0,0,1,11.56,11.64c.31,2.34.68,5,1.14,8.06Z"/><path class="cls-40" d="M2730.94,1394.29c-22.11,56.57-97.25,53-110.87,49.91,1.94,2.08,3.91,4.15,5.93,6.17,0,0,73.32,21.25,106.09-40.1Z"/><path class="cls-40" d="M2565.82,1472c15,64.29-62.22,91.6-62.22,91.6l13.94,6.12s70.44-16.36,55.46-80.65Z"/><circle class="cls-47" cx="2315.66" cy="1040.91" r="21.66" transform="translate(-156.32 1619.76) rotate(-37.38)"/><path class="cls-33" d="M2283.37,764.62l-152.44,57.62A30.83,30.83,0,0,0,2113,862l63.34,167.59a30.85,30.85,0,0,0,39.76,17.94l152.44-57.62a30.86,30.86,0,0,0,17.95-39.76l-63.35-167.58A30.84,30.84,0,0,0,2283.37,764.62Z"/><path class="cls-48" d="M2365.76,984.68l-151,57.1A31.59,31.59,0,0,1,2174,1023.4l-62.82-166.19a31.58,31.58,0,0,1,18.38-40.71l151-57.1a31.59,31.59,0,0,1,40.72,18.38L2384.14,944A31.59,31.59,0,0,1,2365.76,984.68Z"/><rect class="cls-49" x="2177.78" y="846.03" width="19.82" height="154.45" transform="translate(-185.13 833.18) rotate(-20.71)"/><rect class="cls-49" x="2215.6" y="831.74" width="19.82" height="154.45" transform="translate(-177.63 845.63) rotate(-20.71)"/><path class="cls-43" d="M2292.19,813.31a11.33,11.33,0,1,1-14.6-6.59A11.33,11.33,0,0,1,2292.19,813.31Z"/><circle class="cls-50" cx="2250.55" cy="829.05" r="11.33" transform="translate(-145.93 733.23) rotate(-17.93)"/><g class="cls-51"><path class="cls-52" d="M2016.65,543.63a125.75,125.75,0,0,0-18.15,39.71L2183.31,667a314.65,314.65,0,0,0,46.74-26.77Z"/><path class="cls-52" d="M2155.15,679,1995,606.5a111.23,111.23,0,0,0,.85,20.44c.45,3.37.88,6.75,1.3,10.12l120.17,54.42C2129.9,688,2142.64,683.82,2155.15,679Z"/></g><path class="cls-53" d="M3199.18,1716.26c-133.28-36.45-263.68-97.38-362.07-196.32-85-85.47-141.28-201.61-145.18-322.55,32.05-11,62.8-27.26,87.08-51.16,27.3-26.87,46.95-64.84,41-104-5.09-33.49-34-59.49-68.26-59.36-17,.06-32.42,7.43-42.7,20.9-11.21,14.68-17.65,34.11-23.64,51.42-13.61,39.35-20.16,80.67-20.75,122.14-12.26,3.34-24.71,6-37.19,8.08-38.14,6.47-78.06,7.72-116.3,1.26-66.7-11.26-130-46.74-164.75-106.28a176.64,176.64,0,0,1-17.74-42c-4.69-16.85-31-9.69-26.25,7.24,19.4,69.68,75.24,123.23,141,150.21,68.7,28.18,149.76,28.42,221.7,9.56a469.41,469.41,0,0,0,7.57,63.58c13.51,71.79,43.63,141,86,200.38,43.73,61.3,100.24,112.66,162.76,154.3,63.14,42,132.73,74.09,204.41,98.59q36.24,12.38,73.25,22.16ZM2692.89,1153a360.76,360.76,0,0,1,20.56-95.55c2.77-7.61,5.77-15.12,9.14-22.48,3.27-7.17,6.79-15.38,13.35-20.22,8-5.92,19.83-5.71,30.23-2,29.17,10.46,32,44.48,22.73,70.81-11,31.16-37.93,54.89-66,70.62a233.23,233.23,0,0,1-30.86,14.31C2692.21,1163.32,2692.49,1158.15,2692.89,1153Z"/></g></g></g></svg>